<svg xmlns="http://www.w3.org/2000/svg" viewBox="0 0 400 400" width="400" height="400" role="img">
    <ellipse cx="200" cy="200" rx="165" ry="165" fill="url(#glow)" opacity="0.5"/>
    <defs><radialGradient id="glow"><stop offset="0" stop-color="#35BE7C" stop-opacity="0.75"/>
    <stop offset="0.55" stop-color="#35BE7C" stop-opacity="0.18"/>
    <stop offset="1" stop-color="#35BE7C" stop-opacity="0"/></radialGradient></defs>
    <polygon points="256.64,63.27 336.73,143.36 336.73,256.64 256.64,336.73 143.36,336.73 63.27,256.64 63.27,143.36 143.36,63.27" fill="#0A4A2C"/>
    <polygon points="256.64,63.27 336.73,143.36 268.37,171.68 228.32,131.63" fill="#86E8B4" opacity="0.95"/><polygon points="256.64,63.27 228.32,131.63 171.68,131.63" fill="#0A4A2C" opacity="0.55"/><polygon points="336.73,143.36 336.73,256.64 268.37,228.32 268.37,171.68" fill="#1E9E63" opacity="0.95"/><polygon points="336.73,143.36 268.37,171.68 228.32,131.63" fill="#0A4A2C" opacity="0.55"/><polygon points="336.73,256.64 256.64,336.73 228.32,268.37 268.37,228.32" fill="#86E8B4" opacity="0.95"/><polygon points="336.73,256.64 268.37,228.32 268.37,171.68" fill="#0A4A2C" opacity="0.55"/><polygon points="256.64,336.73 143.36,336.73 171.68,268.37 228.32,268.37" fill="#1E9E63" opacity="0.95"/><polygon points="256.64,336.73 228.32,268.37 268.37,228.32" fill="#0A4A2C" opacity="0.55"/><polygon points="143.36,336.73 63.27,256.64 131.63,228.32 171.68,268.37" fill="#86E8B4" opacity="0.95"/><polygon points="143.36,336.73 171.68,268.37 228.32,268.37" fill="#0A4A2C" opacity="0.55"/><polygon points="63.27,256.64 63.27,143.36 131.63,171.68 131.63,228.32" fill="#1E9E63" opacity="0.95"/><polygon points="63.27,256.64 131.63,228.32 171.68,268.37" fill="#0A4A2C" opacity="0.55"/><polygon points="63.27,143.36 143.36,63.27 171.68,131.63 131.63,171.68" fill="#86E8B4" opacity="0.95"/><polygon points="63.27,143.36 131.63,171.68 131.63,228.32" fill="#0A4A2C" opacity="0.55"/><polygon points="143.36,63.27 256.64,63.27 228.32,131.63 171.68,131.63" fill="#1E9E63" opacity="0.95"/><polygon points="143.36,63.27 171.68,131.63 131.63,171.68" fill="#0A4A2C" opacity="0.55"/>
    <polygon points="228.32,131.63 268.37,171.68 268.37,228.32 228.32,268.37 171.68,268.37 131.63,228.32 131.63,171.68 171.68,131.63" fill="url(#table)"/>
    <polygon points="228.32,131.63 268.37,171.68 268.37,228.32 228.32,268.37 171.68,268.37 131.63,228.32 131.63,171.68 171.68,131.63" fill="none" stroke="#86E8B4" stroke-width="1.5" opacity="0.7"/>
    <polygon points="256.64,63.27 336.73,143.36 336.73,256.64 256.64,336.73 143.36,336.73 63.27,256.64 63.27,143.36 143.36,63.27" fill="none" stroke="#86E8B4" stroke-width="2.5" opacity="0.85"/>
    <path d="M 160 166 q 22 -16 46 -6 q -26 4 -46 6 z" fill="#fff" opacity="0.7"/>
    <defs><radialGradient id="table" cx="0.36" cy="0.3">
      <stop offset="0" stop-color="#86E8B4"/><stop offset="0.6" stop-color="#1E9E63"/>
      <stop offset="1" stop-color="#0A4A2C"/></radialGradient></defs></svg>
