<svg xmlns="http://www.w3.org/2000/svg" viewBox="0 0 400 400" width="400" height="400" role="img"><ellipse cx="200" cy="200" rx="165" ry="165" fill="url(#glow)" opacity="0.5"/>
    <defs><radialGradient id="glow"><stop offset="0" stop-color="#B0824F" stop-opacity="0.75"/>
    <stop offset="0.55" stop-color="#B0824F" stop-opacity="0.18"/>
    <stop offset="1" stop-color="#B0824F" stop-opacity="0"/></radialGradient></defs>
    <circle cx="200" cy="200" r="122" fill="none" stroke="#2A1B4E" stroke-width="3" opacity="0.55"/>
    <circle cx="200" cy="78" r="18" fill="#9A6B3F"/>
      <circle cx="200" cy="78" r="18" fill="url(#sheen)"/>
      <circle cx="194.6" cy="72.24" r="5.4" fill="#fff" opacity="0.45"/><circle cx="229.2" cy="81.55" r="18" fill="#9A6B3F"/>
      <circle cx="229.2" cy="81.55" r="18" fill="url(#sheen)"/>
      <circle cx="223.8" cy="75.79" r="5.4" fill="#fff" opacity="0.45"/><circle cx="256.7" cy="91.97" r="18" fill="#9A6B3F"/>
      <circle cx="256.7" cy="91.97" r="18" fill="url(#sheen)"/>
      <circle cx="251.3" cy="86.21" r="5.4" fill="#fff" opacity="0.45"/><circle cx="280.9" cy="108.68" r="18" fill="#9A6B3F"/>
      <circle cx="280.9" cy="108.68" r="18" fill="url(#sheen)"/>
      <circle cx="275.5" cy="102.92" r="5.4" fill="#fff" opacity="0.45"/><circle cx="300.4" cy="130.7" r="18" fill="#9A6B3F"/>
      <circle cx="300.4" cy="130.7" r="18" fill="url(#sheen)"/>
      <circle cx="295" cy="124.94" r="5.4" fill="#fff" opacity="0.45"/><circle cx="314.07" cy="156.74" r="18" fill="#9A6B3F"/>
      <circle cx="314.07" cy="156.74" r="18" fill="url(#sheen)"/>
      <circle cx="308.67" cy="150.98" r="5.4" fill="#fff" opacity="0.45"/><circle cx="321.11" cy="185.29" r="18" fill="#9A6B3F"/>
      <circle cx="321.11" cy="185.29" r="18" fill="url(#sheen)"/>
      <circle cx="315.71" cy="179.53" r="5.4" fill="#fff" opacity="0.45"/><circle cx="321.11" cy="214.71" r="18" fill="#9A6B3F"/>
      <circle cx="321.11" cy="214.71" r="18" fill="url(#sheen)"/>
      <circle cx="315.71" cy="208.95" r="5.4" fill="#fff" opacity="0.45"/><circle cx="314.07" cy="243.26" r="18" fill="#9A6B3F"/>
      <circle cx="314.07" cy="243.26" r="18" fill="url(#sheen)"/>
      <circle cx="308.67" cy="237.5" r="5.4" fill="#fff" opacity="0.45"/><circle cx="300.4" cy="269.3" r="18" fill="#9A6B3F"/>
      <circle cx="300.4" cy="269.3" r="18" fill="url(#sheen)"/>
      <circle cx="295" cy="263.54" r="5.4" fill="#fff" opacity="0.45"/><circle cx="280.9" cy="291.32" r="18" fill="#9A6B3F"/>
      <circle cx="280.9" cy="291.32" r="18" fill="url(#sheen)"/>
      <circle cx="275.5" cy="285.56" r="5.4" fill="#fff" opacity="0.45"/><circle cx="256.7" cy="308.03" r="18" fill="#9A6B3F"/>
      <circle cx="256.7" cy="308.03" r="18" fill="url(#sheen)"/>
      <circle cx="251.3" cy="302.27" r="5.4" fill="#fff" opacity="0.45"/><circle cx="229.2" cy="318.45" r="18" fill="#9A6B3F"/>
      <circle cx="229.2" cy="318.45" r="18" fill="url(#sheen)"/>
      <circle cx="223.8" cy="312.69" r="5.4" fill="#fff" opacity="0.45"/><circle cx="200" cy="322" r="18" fill="#9A6B3F"/>
      <circle cx="200" cy="322" r="18" fill="url(#sheen)"/>
      <circle cx="194.6" cy="316.24" r="5.4" fill="#fff" opacity="0.45"/><circle cx="170.8" cy="318.45" r="18" fill="#9A6B3F"/>
      <circle cx="170.8" cy="318.45" r="18" fill="url(#sheen)"/>
      <circle cx="165.4" cy="312.69" r="5.4" fill="#fff" opacity="0.45"/><circle cx="143.3" cy="308.03" r="18" fill="#9A6B3F"/>
      <circle cx="143.3" cy="308.03" r="18" fill="url(#sheen)"/>
      <circle cx="137.9" cy="302.27" r="5.4" fill="#fff" opacity="0.45"/><circle cx="119.1" cy="291.32" r="18" fill="#9A6B3F"/>
      <circle cx="119.1" cy="291.32" r="18" fill="url(#sheen)"/>
      <circle cx="113.7" cy="285.56" r="5.4" fill="#fff" opacity="0.45"/><circle cx="99.6" cy="269.3" r="18" fill="#9A6B3F"/>
      <circle cx="99.6" cy="269.3" r="18" fill="url(#sheen)"/>
      <circle cx="94.2" cy="263.54" r="5.4" fill="#fff" opacity="0.45"/><circle cx="85.93" cy="243.26" r="18" fill="#9A6B3F"/>
      <circle cx="85.93" cy="243.26" r="18" fill="url(#sheen)"/>
      <circle cx="80.53" cy="237.5" r="5.4" fill="#fff" opacity="0.45"/><circle cx="78.89" cy="214.71" r="18" fill="#9A6B3F"/>
      <circle cx="78.89" cy="214.71" r="18" fill="url(#sheen)"/>
      <circle cx="73.49" cy="208.95" r="5.4" fill="#fff" opacity="0.45"/><circle cx="78.89" cy="185.29" r="18" fill="#9A6B3F"/>
      <circle cx="78.89" cy="185.29" r="18" fill="url(#sheen)"/>
      <circle cx="73.49" cy="179.53" r="5.4" fill="#fff" opacity="0.45"/><circle cx="85.93" cy="156.74" r="18" fill="#9A6B3F"/>
      <circle cx="85.93" cy="156.74" r="18" fill="url(#sheen)"/>
      <circle cx="80.53" cy="150.98" r="5.4" fill="#fff" opacity="0.45"/><circle cx="99.6" cy="130.7" r="18" fill="#9A6B3F"/>
      <circle cx="99.6" cy="130.7" r="18" fill="url(#sheen)"/>
      <circle cx="94.2" cy="124.94" r="5.4" fill="#fff" opacity="0.45"/><circle cx="119.1" cy="108.68" r="18" fill="#9A6B3F"/>
      <circle cx="119.1" cy="108.68" r="18" fill="url(#sheen)"/>
      <circle cx="113.7" cy="102.92" r="5.4" fill="#fff" opacity="0.45"/><circle cx="143.3" cy="91.97" r="18" fill="#9A6B3F"/>
      <circle cx="143.3" cy="91.97" r="18" fill="url(#sheen)"/>
      <circle cx="137.9" cy="86.21" r="5.4" fill="#fff" opacity="0.45"/><circle cx="170.8" cy="81.55" r="18" fill="#9A6B3F"/>
      <circle cx="170.8" cy="81.55" r="18" fill="url(#sheen)"/>
      <circle cx="165.4" cy="75.79" r="5.4" fill="#fff" opacity="0.45"/><circle cx="200" cy="322" r="27" fill="#573A1E"/>
       <circle cx="200" cy="322" r="27" fill="url(#sheen)"/><g stroke="#9A6B3F" stroke-width="4" stroke-linecap="round" opacity="0.9">
        <path d="M 200 336 q -8.4 26 -14 52"/><path d="M 200 336 q -4.2 26 -7 52"/><path d="M 200 336 q 0 26 0 52"/><path d="M 200 336 q 4.2 26 7 52"/><path d="M 200 336 q 8.4 26 14 52"/>
       </g>
    <defs><radialGradient id="sheen" cx="0.33" cy="0.3">
      <stop offset="0" stop-color="#fff" stop-opacity="0.5"/>
      <stop offset="0.6" stop-color="#fff" stop-opacity="0.05"/>
      <stop offset="1" stop-color="#000" stop-opacity="0.3"/></radialGradient></defs></svg>
