<svg xmlns="http://www.w3.org/2000/svg" viewBox="0 0 1200 500" width="1200" height="500" role="img">
    <defs>
      <radialGradient id="bg" cx="50%" cy="42%" r="72%">
        <stop offset="0" stop-color="#123A34"/>
        <stop offset="0.62" stop-color="#12093A"/>
        <stop offset="1" stop-color="#0A0630"/>
      </radialGradient>
      <linearGradient id="gold" x1="0" y1="0" x2="0" y2="1">
        <stop offset="0" stop-color="#F5D98D"/>
        <stop offset="0.5" stop-color="#E8C547"/>
        <stop offset="1" stop-color="#C9A84C"/>
      </linearGradient>
    </defs>
    <rect width="1200" height="500" fill="url(#bg)"/><circle cx="1087.66" cy="100.18" r="1.67" fill="#FFFFFF" opacity="0.36"/><circle cx="483.99" cy="371.45" r="0.8" fill="#FFFFFF" opacity="0.28"/><circle cx="739.11" cy="21.22" r="2.1" fill="#FFFFFF" opacity="0.22"/><circle cx="32.15" cy="15.31" r="1.45" fill="#FFFFFF" opacity="0.25"/><circle cx="165.4" cy="344.19" r="0.72" fill="#FFFFFF" opacity="0.38"/><circle cx="6.3" cy="79.15" r="1.97" fill="#FFFFFF" opacity="0.39"/><circle cx="405.62" cy="19.96" r="1.7" fill="#FFFFFF" opacity="0.26"/><circle cx="351.77" cy="496.61" r="1.28" fill="#FFFFFF" opacity="0.43"/><circle cx="476.57" cy="39.82" r="1.55" fill="#FFFFFF" opacity="0.33"/><circle cx="635.97" cy="261.52" r="1.79" fill="#FFFFFF" opacity="0.5"/><circle cx="42.03" cy="424.27" r="1.69" fill="#FFFFFF" opacity="0.52"/><circle cx="363.59" cy="152.27" r="1.92" fill="#FFFFFF" opacity="0.61"/><circle cx="518.69" cy="124.11" r="2.09" fill="#FFFFFF" opacity="0.35"/><circle cx="949.91" cy="480.28" r="1.82" fill="#FFFFFF" opacity="0.55"/><circle cx="187.73" cy="479.59" r="1.77" fill="#FFFFFF" opacity="0.46"/><circle cx="250.1" cy="271.43" r="1.26" fill="#FFFFFF" opacity="0.26"/><circle cx="42.51" cy="145.85" r="1.36" fill="#FFFFFF" opacity="0.46"/><circle cx="114.71" cy="362.62" r="1.33" fill="#FFFFFF" opacity="0.51"/><circle cx="430.51" cy="340.39" r="1.57" fill="#FFFFFF" opacity="0.52"/><circle cx="164.11" cy="368.75" r="1.34" fill="#FFFFFF" opacity="0.19"/><circle cx="1131.56" cy="186.99" r="2.13" fill="#FFFFFF" opacity="0.45"/><circle cx="1061.41" cy="9.89" r="0.95" fill="#FFFFFF" opacity="0.38"/><circle cx="451.73" cy="131.11" r="1.65" fill="#FFFFFF" opacity="0.4"/><circle cx="556.6" cy="175.14" r="1.73" fill="#FFFFFF" opacity="0.27"/><circle cx="345.34" cy="337.91" r="1.22" fill="#FFFFFF" opacity="0.23"/><circle cx="438.17" cy="158.78" r="1.64" fill="#FFFFFF" opacity="0.56"/><circle cx="40.56" cy="283.41" r="1.72" fill="#FFFFFF" opacity="0.37"/><circle cx="921.17" cy="184.74" r="1.18" fill="#FFFFFF" opacity="0.19"/><circle cx="363.69" cy="329.74" r="1.6" fill="#FFFFFF" opacity="0.36"/><circle cx="424.57" cy="415.96" r="2.09" fill="#FFFFFF" opacity="0.24"/><circle cx="851.17" cy="95.36" r="1.34" fill="#FFFFFF" opacity="0.61"/><circle cx="893.98" cy="219.34" r="1.66" fill="#FFFFFF" opacity="0.35"/><circle cx="262.38" cy="88.67" r="0.76" fill="#FFFFFF" opacity="0.44"/><circle cx="548.12" cy="311.54" r="1.52" fill="#FFFFFF" opacity="0.28"/><circle cx="675.27" cy="172.9" r="1.08" fill="#FFFFFF" opacity="0.39"/><circle cx="737.88" cy="244.32" r="1.35" fill="#FFFFFF" opacity="0.19"/><circle cx="622.3" cy="335.02" r="1.61" fill="#FFFFFF" opacity="0.58"/><circle cx="945.76" cy="103.63" r="0.87" fill="#FFFFFF" opacity="0.27"/><circle cx="887.97" cy="139.77" r="1.41" fill="#FFFFFF" opacity="0.49"/><circle cx="1178.52" cy="268.73" r="1.56" fill="#FFFFFF" opacity="0.49"/><circle cx="1125.07" cy="73.28" r="1.66" fill="#FFFFFF" opacity="0.23"/><circle cx="1001.44" cy="131.71" r="1.21" fill="#FFFFFF" opacity="0.6"/><circle cx="697.15" cy="301.36" r="2.16" fill="#FFFFFF" opacity="0.43"/><circle cx="1188.05" cy="67.72" r="1.99" fill="#FFFFFF" opacity="0.58"/><circle cx="414.85" cy="220.34" r="1.69" fill="#FFFFFF" opacity="0.29"/><circle cx="558.43" cy="56.58" r="1.8" fill="#FFFFFF" opacity="0.19"/><defs><radialGradient id="halo">
      <stop offset="0" stop-color="#6BD4B0" stop-opacity="0.55"/>
      <stop offset="0.55" stop-color="#6BD4B0" stop-opacity="0.14"/>
      <stop offset="1" stop-color="#6BD4B0" stop-opacity="0"/>
    </radialGradient></defs>
    <ellipse cx="600" cy="250" rx="263.25" ry="195" fill="url(#halo)" opacity="0.45"/>
    <rect x="214" y="320" width="42" height="70" rx="8"
        fill="url(#gold)" opacity="0.32"/><rect x="282" y="268" width="42" height="122" rx="8"
        fill="url(#gold)" opacity="0.48"/><rect x="350" y="216" width="42" height="174" rx="8"
        fill="url(#gold)" opacity="0.64"/><rect x="418" y="164" width="42" height="226" rx="8"
        fill="url(#gold)" opacity="0.8"/>
    <polygon points="897,250 834.5,312.5 772,250 834.5,187.5" fill="#E8C547" opacity="0.28"/><rect x="647" y="125" width="250" height="250"
      fill="none" stroke="url(#gold)" stroke-width="3" opacity="0.9"/><polygon points="772,125 897,250 772,375 647,250"
      fill="none" stroke="url(#gold)" stroke-width="2.5" opacity="0.75"/><line x1="647" y1="125" x2="897" y2="375" stroke="#C9A84C" stroke-width="2" opacity="0.5"/><line x1="897" y1="125" x2="647" y2="375" stroke="#C9A84C" stroke-width="2" opacity="0.5"/>
    <text x="865" y="250" font-family="Georgia, 'Times New Roman', serif"
     font-size="44" fill="url(#gold)" opacity="0.95"
     text-anchor="middle" dominant-baseline="central">10</text></svg>
